solid OpenSCAD_Model
  facet normal 1 -0 0
    outer loop
      vertex -26 10 10
      vertex -26 50 -10
      vertex -26 50 10
    endloop
  endfacet
  facet normal 1 0 0
    outer loop
      vertex -26 50 -10
      vertex -26 10 10
      vertex -26 10 -10
    endloop
  endfacet
  facet normal 0 0 1
    outer loop
      vertex -26 50 10
      vertex -46 50 10
      vertex -26 10 10
    endloop
  endfacet
  facet normal 0 0 1
    outer loop
      vertex 26 10 10
      vertex 46 50 10
      vertex 26 50 10
    endloop
  endfacet
  facet normal 0 0 1
    outer loop
      vertex 46 50 10
      vertex 26 10 10
      vertex 46 -10 10
    endloop
  endfacet
  facet normal -0 0 1
    outer loop
      vertex -26 10 10
      vertex 46 -10 10
      vertex 26 10 10
    endloop
  endfacet
  facet normal 0 0 1
    outer loop
      vertex -26 10 10
      vertex -46 -10 10
      vertex 46 -10 10
    endloop
  endfacet
  facet normal 0 0 1
    outer loop
      vertex -46 -10 10
      vertex -26 10 10
      vertex -46 50 10
    endloop
  endfacet
  facet normal -1 0 0
    outer loop
      vertex 26 10 -10
      vertex 26 50 10
      vertex 26 50 -10
    endloop
  endfacet
  facet normal -1 -0 0
    outer loop
      vertex 26 50 10
      vertex 26 10 -10
      vertex 26 10 10
    endloop
  endfacet
  facet normal 0 0 -1
    outer loop
      vertex 46 -10 -10
      vertex 26 10 -10
      vertex 46 50 -10
    endloop
  endfacet
  facet normal 0 0 -1
    outer loop
      vertex 46 -10 -10
      vertex -26 10 -10
      vertex 26 10 -10
    endloop
  endfacet
  facet normal 0 0 -1
    outer loop
      vertex -46 -10 -10
      vertex -26 10 -10
      vertex 46 -10 -10
    endloop
  endfacet
  facet normal 0 0 -1
    outer loop
      vertex -46 50 -10
      vertex -26 10 -10
      vertex -46 -10 -10
    endloop
  endfacet
  facet normal 0 0 -1
    outer loop
      vertex -26 10 -10
      vertex -46 50 -10
      vertex -26 50 -10
    endloop
  endfacet
  facet normal -0 0 -1
    outer loop
      vertex 46 50 -10
      vertex 26 10 -10
      vertex 26 50 -10
    endloop
  endfacet
  facet normal 0 -1 0
    outer loop
      vertex -46 -10 -10
      vertex 46 -10 10
      vertex -46 -10 10
    endloop
  endfacet
  facet normal 0 -1 -0
    outer loop
      vertex 46 -10 10
      vertex -46 -10 -10
      vertex 46 -10 -10
    endloop
  endfacet
  facet normal 0 1 -0
    outer loop
      vertex 26 10 -10
      vertex -26 10 10
      vertex 26 10 10
    endloop
  endfacet
  facet normal 0 1 0
    outer loop
      vertex -26 10 10
      vertex 26 10 -10
      vertex -26 10 -10
    endloop
  endfacet
  facet normal 1 -0 0
    outer loop
      vertex 46 -10 10
      vertex 46 50 -10
      vertex 46 50 10
    endloop
  endfacet
  facet normal 1 0 0
    outer loop
      vertex 46 50 -10
      vertex 46 -10 10
      vertex 46 -10 -10
    endloop
  endfacet
  facet normal 0 1 -0
    outer loop
      vertex 46 50 -10
      vertex 26 50 10
      vertex 46 50 10
    endloop
  endfacet
  facet normal 0 1 0
    outer loop
      vertex 26 50 10
      vertex 46 50 -10
      vertex 26 50 -10
    endloop
  endfacet
  facet normal -1 0 0
    outer loop
      vertex -46 -10 -10
      vertex -46 50 10
      vertex -46 50 -10
    endloop
  endfacet
  facet normal -1 -0 0
    outer loop
      vertex -46 50 10
      vertex -46 -10 -10
      vertex -46 -10 10
    endloop
  endfacet
  facet normal 0 1 -0
    outer loop
      vertex -26 50 -10
      vertex -46 50 10
      vertex -26 50 10
    endloop
  endfacet
  facet normal 0 1 0
    outer loop
      vertex -46 50 10
      vertex -26 50 -10
      vertex -46 50 -10
    endloop
  endfacet
endsolid OpenSCAD_Model
