solid OpenSCAD_Model
  facet normal -1 0 0
    outer loop
      vertex -50 -50 -75
      vertex -50 50 75
      vertex -50 50 -75
    endloop
  endfacet
  facet normal -1 -0 0
    outer loop
      vertex -50 50 75
      vertex -50 -50 -75
      vertex -50 -50 75
    endloop
  endfacet
  facet normal 0 0 1
    outer loop
      vertex 50 50 75
      vertex 49.4 49.4 75
      vertex 50 -50 75
    endloop
  endfacet
  facet normal 0 0 1
    outer loop
      vertex 50 50 75
      vertex -49.4 49.4 75
      vertex 49.4 49.4 75
    endloop
  endfacet
  facet normal 0 0 1
    outer loop
      vertex -49.4 49.4 75
      vertex -50 50 75
      vertex -49.4 -49.4 75
    endloop
  endfacet
  facet normal -0 0 1
    outer loop
      vertex -50 50 75
      vertex -49.4 49.4 75
      vertex 50 50 75
    endloop
  endfacet
  facet normal -0 0 1
    outer loop
      vertex 49.4 -49.4 75
      vertex 50 -50 75
      vertex 49.4 49.4 75
    endloop
  endfacet
  facet normal -0 0 1
    outer loop
      vertex -49.4 -49.4 75
      vertex 50 -50 75
      vertex 49.4 -49.4 75
    endloop
  endfacet
  facet normal 0 0 1
    outer loop
      vertex -49.4 -49.4 75
      vertex -50 -50 75
      vertex 50 -50 75
    endloop
  endfacet
  facet normal 0 0 1
    outer loop
      vertex -50 -50 75
      vertex -49.4 -49.4 75
      vertex -50 50 75
    endloop
  endfacet
  facet normal 1 -0 0
    outer loop
      vertex 50 -50 75
      vertex 50 50 -75
      vertex 50 50 75
    endloop
  endfacet
  facet normal 1 0 0
    outer loop
      vertex 50 50 -75
      vertex 50 -50 75
      vertex 50 -50 -75
    endloop
  endfacet
  facet normal 0 0 -1
    outer loop
      vertex -50 -50 -75
      vertex 50 50 -75
      vertex 50 -50 -75
    endloop
  endfacet
  facet normal -0 0 -1
    outer loop
      vertex 50 50 -75
      vertex -50 -50 -75
      vertex -50 50 -75
    endloop
  endfacet
  facet normal 0 -1 0
    outer loop
      vertex -50 -50 -75
      vertex 50 -50 75
      vertex -50 -50 75
    endloop
  endfacet
  facet normal 0 -1 -0
    outer loop
      vertex 50 -50 75
      vertex -50 -50 -75
      vertex 50 -50 -75
    endloop
  endfacet
  facet normal 0 1 -0
    outer loop
      vertex 50 50 -75
      vertex -50 50 75
      vertex 50 50 75
    endloop
  endfacet
  facet normal 0 1 0
    outer loop
      vertex -50 50 75
      vertex 50 50 -75
      vertex -50 50 -75
    endloop
  endfacet
  facet normal 1 -0 0
    outer loop
      vertex -49.4 -49.4 75
      vertex -49.4 49.4 -73.8
      vertex -49.4 49.4 75
    endloop
  endfacet
  facet normal 1 0 0
    outer loop
      vertex -49.4 49.4 -73.8
      vertex -49.4 -49.4 75
      vertex -49.4 -49.4 -73.8
    endloop
  endfacet
  facet normal -1 0 0
    outer loop
      vertex 49.4 -49.4 -73.8
      vertex 49.4 49.4 75
      vertex 49.4 49.4 -73.8
    endloop
  endfacet
  facet normal -1 -0 0
    outer loop
      vertex 49.4 49.4 75
      vertex 49.4 -49.4 -73.8
      vertex 49.4 -49.4 75
    endloop
  endfacet
  facet normal 0 -1 0
    outer loop
      vertex -49.4 49.4 -73.8
      vertex 49.4 49.4 75
      vertex -49.4 49.4 75
    endloop
  endfacet
  facet normal 0 -1 -0
    outer loop
      vertex 49.4 49.4 75
      vertex -49.4 49.4 -73.8
      vertex 49.4 49.4 -73.8
    endloop
  endfacet
  facet normal -0 0 1
    outer loop
      vertex -49.4 49.4 -73.8
      vertex 49.4 -49.4 -73.8
      vertex 49.4 49.4 -73.8
    endloop
  endfacet
  facet normal 0 0 1
    outer loop
      vertex 49.4 -49.4 -73.8
      vertex -49.4 49.4 -73.8
      vertex -49.4 -49.4 -73.8
    endloop
  endfacet
  facet normal 0 1 -0
    outer loop
      vertex 49.4 -49.4 -73.8
      vertex -49.4 -49.4 75
      vertex 49.4 -49.4 75
    endloop
  endfacet
  facet normal 0 1 0
    outer loop
      vertex -49.4 -49.4 75
      vertex 49.4 -49.4 -73.8
      vertex -49.4 -49.4 -73.8
    endloop
  endfacet
endsolid OpenSCAD_Model
