solid OpenSCAD_Model
  facet normal -1 0 0
    outer loop
      vertex -0.5 -20 -25
      vertex -0.5 -9.94522 -15
      vertex -0.5 -9.94522 -25
    endloop
  endfacet
  facet normal -1 -0 0
    outer loop
      vertex -0.5 -9.94522 -15
      vertex -0.5 -20 -25
      vertex -0.5 -20 -15
    endloop
  endfacet
  facet normal -1 0 0
    outer loop
      vertex -0.5 9.94522 -25
      vertex -0.5 20 -15
      vertex -0.5 20 -25
    endloop
  endfacet
  facet normal -1 -0 0
    outer loop
      vertex -0.5 20 -15
      vertex -0.5 9.94522 -25
      vertex -0.5 9.94522 -15
    endloop
  endfacet
  facet normal 0 0 1
    outer loop
      vertex -9.94745 0.5 -15
      vertex -20 0.5 -15
      vertex -10 0 -15
    endloop
  endfacet
  facet normal 0 0 1
    outer loop
      vertex -20 -0.5 -15
      vertex -10 0 -15
      vertex -20 0.5 -15
    endloop
  endfacet
  facet normal 0 0 1
    outer loop
      vertex -10 0 -15
      vertex -20 -0.5 -15
      vertex -9.94745 -0.5 -15
    endloop
  endfacet
  facet normal 0 0 1
    outer loop
      vertex 20 0.5 -15
      vertex 10 0 -15
      vertex 20 -0.5 -15
    endloop
  endfacet
  facet normal 0 -0 1
    outer loop
      vertex 10 0 -15
      vertex 20 0.5 -15
      vertex 9.94745 0.5 -15
    endloop
  endfacet
  facet normal 0 0 1
    outer loop
      vertex 20 -0.5 -15
      vertex 10 0 -15
      vertex 9.94745 -0.5 -15
    endloop
  endfacet
  facet normal -0 0 1
    outer loop
      vertex -0.5 -9.94522 -15
      vertex 0.5 -20 -15
      vertex 0.5 -9.94522 -15
    endloop
  endfacet
  facet normal 0 0 1
    outer loop
      vertex 0.5 -20 -15
      vertex -0.5 -9.94522 -15
      vertex -0.5 -20 -15
    endloop
  endfacet
  facet normal -0 0 1
    outer loop
      vertex -0.5 20 -15
      vertex 0.5 9.94522 -15
      vertex 0.5 20 -15
    endloop
  endfacet
  facet normal 0 0 1
    outer loop
      vertex 0.5 9.94522 -15
      vertex -0.5 20 -15
      vertex -0.5 9.94522 -15
    endloop
  endfacet
  facet normal 1 -0 0
    outer loop
      vertex 0.5 -20 -15
      vertex 0.5 -9.94522 -25
      vertex 0.5 -9.94522 -15
    endloop
  endfacet
  facet normal 1 0 0
    outer loop
      vertex 0.5 -9.94522 -25
      vertex 0.5 -20 -15
      vertex 0.5 -20 -25
    endloop
  endfacet
  facet normal 1 -0 0
    outer loop
      vertex 0.5 9.94522 -15
      vertex 0.5 20 -25
      vertex 0.5 20 -15
    endloop
  endfacet
  facet normal 1 0 0
    outer loop
      vertex 0.5 20 -25
      vertex 0.5 9.94522 -15
      vertex 0.5 9.94522 -25
    endloop
  endfacet
  facet normal 0 1 -0
    outer loop
      vertex 0.5 20 -25
      vertex -0.5 20 -15
      vertex 0.5 20 -15
    endloop
  endfacet
  facet normal 0 1 0
    outer loop
      vertex -0.5 20 -15
      vertex 0.5 20 -25
      vertex -0.5 20 -25
    endloop
  endfacet
  facet normal 0 0 -1
    outer loop
      vertex -3.09017 -9.51056 -25
      vertex -0.5 -9.94522 -25
      vertex -1.04528 -9.94522 -25
    endloop
  endfacet
  facet normal 0 0 -1
    outer loop
      vertex -0.5 -9.94522 -25
      vertex -3.09017 -9.51056 -25
      vertex -0.5 9.94522 -25
    endloop
  endfacet
  facet normal 0 0 -1
    outer loop
      vertex -5 8.66025 -25
      vertex -0.5 9.94522 -25
      vertex -3.09017 -9.51056 -25
    endloop
  endfacet
  facet normal -0 0 -1
    outer loop
      vertex -0.5 9.94522 -25
      vertex -3.09017 9.51056 -25
      vertex -1.04528 9.94522 -25
    endloop
  endfacet
  facet normal 0 0 -1
    outer loop
      vertex -0.5 9.94522 -25
      vertex -5 8.66025 -25
      vertex -3.09017 9.51056 -25
    endloop
  endfacet
  facet normal 0 0 -1
    outer loop
      vertex -5 -8.66025 -25
      vertex -5 8.66025 -25
      vertex -3.09017 -9.51056 -25
    endloop
  endfacet
  facet normal 0 0 -1
    outer loop
      vertex -6.69131 -7.43145 -25
      vertex -5 8.66025 -25
      vertex -5 -8.66025 -25
    endloop
  endfacet
  facet normal 0 0 -1
    outer loop
      vertex -6.69131 -7.43145 -25
      vertex -6.69131 7.43145 -25
      vertex -5 8.66025 -25
    endloop
  endfacet
  facet normal 0 0 -1
    outer loop
      vertex -9.94745 -0.5 -25
      vertex -6.69131 -7.43145 -25
      vertex -8.09017 -5.87785 -25
    endloop
  endfacet
  facet normal 0 0 -1
    outer loop
      vertex -6.69131 -7.43145 -25
      vertex -9.94745 -0.5 -25
      vertex -6.69131 7.43145 -25
    endloop
  endfacet
  facet normal 0 0 -1
    outer loop
      vertex -9.94745 -0.5 -25
      vertex -8.09017 -5.87785 -25
      vertex -9.13545 -4.06737 -25
    endloop
  endfacet
  facet normal 0 0 -1
    outer loop
      vertex -9.94745 0.5 -25
      vertex -6.69131 7.43145 -25
      vertex -9.94745 -0.5 -25
    endloop
  endfacet
  facet normal 0 0 -1
    outer loop
      vertex -9.94745 -0.5 -25
      vertex -9.13545 -4.06737 -25
      vertex -9.78148 -2.07912 -25
    endloop
  endfacet
  facet normal 0 0 -1
    outer loop
      vertex -6.69131 7.43145 -25
      vertex -9.94745 0.5 -25
      vertex -8.09017 5.87785 -25
    endloop
  endfacet
  facet normal 0 0 -1
    outer loop
      vertex -8.09017 5.87785 -25
      vertex -9.94745 0.5 -25
      vertex -9.13545 4.06737 -25
    endloop
  endfacet
  facet normal 0 0 -1
    outer loop
      vertex -9.13545 4.06737 -25
      vertex -9.94745 0.5 -25
      vertex -9.78148 2.07912 -25
    endloop
  endfacet
  facet normal 0 0 -1
    outer loop
      vertex -20 -0.5 -25
      vertex -9.94745 0.5 -25
      vertex -9.94745 -0.5 -25
    endloop
  endfacet
  facet normal -0 0 -1
    outer loop
      vertex -9.94745 0.5 -25
      vertex -20 -0.5 -25
      vertex -20 0.5 -25
    endloop
  endfacet
  facet normal 0 0 -1
    outer loop
      vertex -0.5 -9.94522 -25
      vertex 0.5 -9.94522 -25
      vertex 0.5 -20 -25
    endloop
  endfacet
  facet normal 0 0 -1
    outer loop
      vertex 0.5 -9.94522 -25
      vertex -0.5 -9.94522 -25
      vertex 0.5 9.94522 -25
    endloop
  endfacet
  facet normal 0 0 -1
    outer loop
      vertex -0.5 -9.94522 -25
      vertex 0.5 -20 -25
      vertex -0.5 -20 -25
    endloop
  endfacet
  facet normal 0 0 -1
    outer loop
      vertex -0.5 9.94522 -25
      vertex 0.5 9.94522 -25
      vertex -0.5 -9.94522 -25
    endloop
  endfacet
  facet normal 0 0 -1
    outer loop
      vertex 0.5 9.94522 -25
      vertex -0.5 9.94522 -25
      vertex 0.5 20 -25
    endloop
  endfacet
  facet normal -0 0 -1
    outer loop
      vertex 0.5 20 -25
      vertex -0.5 9.94522 -25
      vertex -0.5 20 -25
    endloop
  endfacet
  facet normal 0 0 -1
    outer loop
      vertex 9.94745 -0.5 -25
      vertex 20 0.5 -25
      vertex 20 -0.5 -25
    endloop
  endfacet
  facet normal 0 0 -1
    outer loop
      vertex 9.94745 -0.5 -25
      vertex 9.94745 0.5 -25
      vertex 20 0.5 -25
    endloop
  endfacet
  facet normal 0 0 -1
    outer loop
      vertex 9.13545 -4.06737 -25
      vertex 9.94745 -0.5 -25
      vertex 9.78148 -2.07912 -25
    endloop
  endfacet
  facet normal 0 0 -1
    outer loop
      vertex 8.09017 -5.87785 -25
      vertex 9.94745 -0.5 -25
      vertex 9.13545 -4.06737 -25
    endloop
  endfacet
  facet normal 0 0 -1
    outer loop
      vertex 6.69131 -7.43145 -25
      vertex 9.94745 -0.5 -25
      vertex 8.09017 -5.87785 -25
    endloop
  endfacet
  facet normal 0 0 -1
    outer loop
      vertex 9.94745 0.5 -25
      vertex 9.13545 4.06737 -25
      vertex 9.78148 2.07912 -25
    endloop
  endfacet
  facet normal -0 0 -1
    outer loop
      vertex 9.94745 -0.5 -25
      vertex 6.69131 -7.43145 -25
      vertex 9.94745 0.5 -25
    endloop
  endfacet
  facet normal 0 0 -1
    outer loop
      vertex 9.94745 0.5 -25
      vertex 8.09017 5.87785 -25
      vertex 9.13545 4.06737 -25
    endloop
  endfacet
  facet normal 0 0 -1
    outer loop
      vertex 6.69131 7.43145 -25
      vertex 9.94745 0.5 -25
      vertex 6.69131 -7.43145 -25
    endloop
  endfacet
  facet normal 0 0 -1
    outer loop
      vertex 9.94745 0.5 -25
      vertex 6.69131 7.43145 -25
      vertex 8.09017 5.87785 -25
    endloop
  endfacet
  facet normal 0 0 -1
    outer loop
      vertex 5 -8.66025 -25
      vertex 6.69131 7.43145 -25
      vertex 6.69131 -7.43145 -25
    endloop
  endfacet
  facet normal 0 0 -1
    outer loop
      vertex 5 -8.66025 -25
      vertex 5 8.66025 -25
      vertex 6.69131 7.43145 -25
    endloop
  endfacet
  facet normal 0 0 -1
    outer loop
      vertex 0.5 -9.94522 -25
      vertex 5 -8.66025 -25
      vertex 3.09017 -9.51056 -25
    endloop
  endfacet
  facet normal -0 0 -1
    outer loop
      vertex 5 -8.66025 -25
      vertex 0.5 -9.94522 -25
      vertex 5 8.66025 -25
    endloop
  endfacet
  facet normal 0 0 -1
    outer loop
      vertex 0.5 -9.94522 -25
      vertex 3.09017 -9.51056 -25
      vertex 1.04528 -9.94522 -25
    endloop
  endfacet
  facet normal 0 0 -1
    outer loop
      vertex 0.5 9.94522 -25
      vertex 5 8.66025 -25
      vertex 0.5 -9.94522 -25
    endloop
  endfacet
  facet normal 0 0 -1
    outer loop
      vertex 5 8.66025 -25
      vertex 0.5 9.94522 -25
      vertex 3.09017 9.51056 -25
    endloop
  endfacet
  facet normal 0 0 -1
    outer loop
      vertex 3.09017 9.51056 -25
      vertex 0.5 9.94522 -25
      vertex 1.04528 9.94522 -25
    endloop
  endfacet
  facet normal 0 -1 0
    outer loop
      vertex -0.5 -20 -25
      vertex 0.5 -20 -15
      vertex -0.5 -20 -15
    endloop
  endfacet
  facet normal 0 -1 -0
    outer loop
      vertex 0.5 -20 -15
      vertex -0.5 -20 -25
      vertex 0.5 -20 -25
    endloop
  endfacet
  facet normal -1 0 0
    outer loop
      vertex -20 -0.5 -25
      vertex -20 0.5 -15
      vertex -20 0.5 -25
    endloop
  endfacet
  facet normal -1 -0 0
    outer loop
      vertex -20 0.5 -15
      vertex -20 -0.5 -25
      vertex -20 -0.5 -15
    endloop
  endfacet
  facet normal 1 -0 0
    outer loop
      vertex 20 -0.5 -15
      vertex 20 0.5 -25
      vertex 20 0.5 -15
    endloop
  endfacet
  facet normal 1 0 0
    outer loop
      vertex 20 0.5 -25
      vertex 20 -0.5 -15
      vertex 20 -0.5 -25
    endloop
  endfacet
  facet normal 0 -1 0
    outer loop
      vertex -20 -0.5 -25
      vertex -9.94745 -0.5 -15
      vertex -20 -0.5 -15
    endloop
  endfacet
  facet normal 0 -1 -0
    outer loop
      vertex -9.94745 -0.5 -15
      vertex -20 -0.5 -25
      vertex -9.94745 -0.5 -25
    endloop
  endfacet
  facet normal 0 -1 0
    outer loop
      vertex 9.94745 -0.5 -25
      vertex 20 -0.5 -15
      vertex 9.94745 -0.5 -15
    endloop
  endfacet
  facet normal 0 -1 -0
    outer loop
      vertex 20 -0.5 -15
      vertex 9.94745 -0.5 -25
      vertex 20 -0.5 -25
    endloop
  endfacet
  facet normal 0 1 -0
    outer loop
      vertex 20 0.5 -25
      vertex 9.94745 0.5 -15
      vertex 20 0.5 -15
    endloop
  endfacet
  facet normal 0 1 0
    outer loop
      vertex 9.94745 0.5 -15
      vertex 20 0.5 -25
      vertex 9.94745 0.5 -25
    endloop
  endfacet
  facet normal 0 1 -0
    outer loop
      vertex -9.94745 0.5 -25
      vertex -20 0.5 -15
      vertex -9.94745 0.5 -15
    endloop
  endfacet
  facet normal 0 1 0
    outer loop
      vertex -20 0.5 -15
      vertex -9.94745 0.5 -25
      vertex -20 0.5 -25
    endloop
  endfacet
  facet normal 0.866026 0.5 0
    outer loop
      vertex 9.13545 4.06737 25
      vertex 8.09017 5.87785 -25
      vertex 8.09017 5.87785 25
    endloop
  endfacet
  facet normal 0.866026 0.5 0
    outer loop
      vertex 8.09017 5.87785 -25
      vertex 9.13545 4.06737 25
      vertex 9.13545 4.06737 -25
    endloop
  endfacet
  facet normal 0.743145 0.669131 0
    outer loop
      vertex 8.09017 5.87785 25
      vertex 6.69131 7.43145 -25
      vertex 6.69131 7.43145 25
    endloop
  endfacet
  facet normal 0.743145 0.669131 0
    outer loop
      vertex 6.69131 7.43145 -25
      vertex 8.09017 5.87785 25
      vertex 8.09017 5.87785 -25
    endloop
  endfacet
  facet normal -0.406737 0.913545 0
    outer loop
      vertex -3.09017 9.51056 -25
      vertex -5 8.66025 25
      vertex -3.09017 9.51056 25
    endloop
  endfacet
  facet normal -0.406737 0.913545 0
    outer loop
      vertex -5 8.66025 25
      vertex -3.09017 9.51056 -25
      vertex -5 8.66025 -25
    endloop
  endfacet
  facet normal 0.994522 -0.104529 0
    outer loop
      vertex 10 0 25
      vertex 9.94745 -0.5 -15
      vertex 10 0 -15
    endloop
  endfacet
  facet normal 0.994522 -0.104529 3.05142e-09
    outer loop
      vertex 9.78148 -2.07912 25
      vertex 9.94745 -0.5 -15
      vertex 10 0 25
    endloop
  endfacet
  facet normal 0.994522 -0.104529 0
    outer loop
      vertex 9.78148 -2.07912 -25
      vertex 9.94745 -0.5 -15
      vertex 9.78148 -2.07912 25
    endloop
  endfacet
  facet normal 0.994522 -0.104529 0
    outer loop
      vertex 9.94745 -0.5 -15
      vertex 9.78148 -2.07912 -25
      vertex 9.94745 -0.5 -25
    endloop
  endfacet
  facet normal 0.951057 0.309017 0
    outer loop
      vertex 9.78148 2.07912 25
      vertex 9.13545 4.06737 -25
      vertex 9.13545 4.06737 25
    endloop
  endfacet
  facet normal 0.951057 0.309017 0
    outer loop
      vertex 9.13545 4.06737 -25
      vertex 9.78148 2.07912 25
      vertex 9.78148 2.07912 -25
    endloop
  endfacet
  facet normal 0.587785 0.809017 -0
    outer loop
      vertex 6.69131 7.43145 -25
      vertex 5 8.66025 25
      vertex 6.69131 7.43145 25
    endloop
  endfacet
  facet normal 0.587785 0.809017 0
    outer loop
      vertex 5 8.66025 25
      vertex 6.69131 7.43145 -25
      vertex 5 8.66025 -25
    endloop
  endfacet
  facet normal 0 1 0
    outer loop
      vertex 1.04528 9.94522 25
      vertex 0.5 9.94522 -15
      vertex -1.04528 9.94522 25
    endloop
  endfacet
  facet normal 0 1 -0
    outer loop
      vertex 1.04528 9.94522 -25
      vertex 0.5 9.94522 -15
      vertex 1.04528 9.94522 25
    endloop
  endfacet
  facet normal 0 1 0
    outer loop
      vertex 0.5 9.94522 -15
      vertex 1.04528 9.94522 -25
      vertex 0.5 9.94522 -25
    endloop
  endfacet
  facet normal 0 1 -0
    outer loop
      vertex -0.5 9.94522 -15
      vertex -1.04528 9.94522 25
      vertex 0.5 9.94522 -15
    endloop
  endfacet
  facet normal 0 1 0
    outer loop
      vertex -1.04528 9.94522 -25
      vertex -0.5 9.94522 -15
      vertex -0.5 9.94522 -25
    endloop
  endfacet
  facet normal 0 1 0
    outer loop
      vertex -0.5 9.94522 -15
      vertex -1.04528 9.94522 -25
      vertex -1.04528 9.94522 25
    endloop
  endfacet
  facet normal 0.406737 0.913545 -0
    outer loop
      vertex 5 8.66025 -25
      vertex 3.09017 9.51056 25
      vertex 5 8.66025 25
    endloop
  endfacet
  facet normal 0.406737 0.913545 0
    outer loop
      vertex 3.09017 9.51056 25
      vertex 5 8.66025 -25
      vertex 3.09017 9.51056 -25
    endloop
  endfacet
  facet normal -0.994522 0.104529 0
    outer loop
      vertex -9.94745 0.5 -15
      vertex -9.78148 2.07912 -25
      vertex -9.94745 0.5 -25
    endloop
  endfacet
  facet normal -0.994522 0.104529 0
    outer loop
      vertex -9.78148 2.07912 -25
      vertex -9.94745 0.5 -15
      vertex -9.78148 2.07912 25
    endloop
  endfacet
  facet normal -0.994522 0.104529 0
    outer loop
      vertex -10 0 25
      vertex -9.94745 0.5 -15
      vertex -10 0 -15
    endloop
  endfacet
  facet normal -0.994522 0.104529 3.05142e-09
    outer loop
      vertex -9.94745 0.5 -15
      vertex -10 0 25
      vertex -9.78148 2.07912 25
    endloop
  endfacet
  facet normal -0.866026 0.5 0
    outer loop
      vertex -9.13545 4.06737 -25
      vertex -8.09017 5.87785 25
      vertex -8.09017 5.87785 -25
    endloop
  endfacet
  facet normal -0.866026 0.5 0
    outer loop
      vertex -8.09017 5.87785 25
      vertex -9.13545 4.06737 -25
      vertex -9.13545 4.06737 25
    endloop
  endfacet
  facet normal -0.587785 0.809017 0
    outer loop
      vertex -5 8.66025 -25
      vertex -6.69131 7.43145 25
      vertex -5 8.66025 25
    endloop
  endfacet
  facet normal -0.587785 0.809017 0
    outer loop
      vertex -6.69131 7.43145 25
      vertex -5 8.66025 -25
      vertex -6.69131 7.43145 -25
    endloop
  endfacet
  facet normal -0.207911 0.978148 0
    outer loop
      vertex -1.04528 9.94522 -25
      vertex -3.09017 9.51056 25
      vertex -1.04528 9.94522 25
    endloop
  endfacet
  facet normal -0.207911 0.978148 0
    outer loop
      vertex -3.09017 9.51056 25
      vertex -1.04528 9.94522 -25
      vertex -3.09017 9.51056 -25
    endloop
  endfacet
  facet normal -0.743145 0.669131 0
    outer loop
      vertex -8.09017 5.87785 -25
      vertex -6.69131 7.43145 25
      vertex -6.69131 7.43145 -25
    endloop
  endfacet
  facet normal -0.743145 0.669131 0
    outer loop
      vertex -6.69131 7.43145 25
      vertex -8.09017 5.87785 -25
      vertex -8.09017 5.87785 25
    endloop
  endfacet
  facet normal 0.994522 0.104529 0
    outer loop
      vertex 9.78148 2.07912 25
      vertex 9.94745 0.5 -15
      vertex 9.78148 2.07912 -25
    endloop
  endfacet
  facet normal 0.994522 0.104529 3.05142e-09
    outer loop
      vertex 10 0 25
      vertex 9.94745 0.5 -15
      vertex 9.78148 2.07912 25
    endloop
  endfacet
  facet normal 0.994522 0.104529 0
    outer loop
      vertex 9.94745 0.5 -15
      vertex 10 0 25
      vertex 10 0 -15
    endloop
  endfacet
  facet normal 0.994522 0.104529 0
    outer loop
      vertex 9.78148 2.07912 -25
      vertex 9.94745 0.5 -15
      vertex 9.94745 0.5 -25
    endloop
  endfacet
  facet normal 0.951057 -0.309017 0
    outer loop
      vertex 9.13545 -4.06737 25
      vertex 9.78148 -2.07912 -25
      vertex 9.78148 -2.07912 25
    endloop
  endfacet
  facet normal 0.951057 -0.309017 0
    outer loop
      vertex 9.78148 -2.07912 -25
      vertex 9.13545 -4.06737 25
      vertex 9.13545 -4.06737 -25
    endloop
  endfacet
  facet normal -0.866026 -0.5 0
    outer loop
      vertex -8.09017 -5.87785 -25
      vertex -9.13545 -4.06737 25
      vertex -9.13545 -4.06737 -25
    endloop
  endfacet
  facet normal -0.866026 -0.5 0
    outer loop
      vertex -9.13545 -4.06737 25
      vertex -8.09017 -5.87785 -25
      vertex -8.09017 -5.87785 25
    endloop
  endfacet
  facet normal 0.587785 -0.809017 0
    outer loop
      vertex 5 -8.66025 -25
      vertex 6.69131 -7.43145 25
      vertex 5 -8.66025 25
    endloop
  endfacet
  facet normal 0.587785 -0.809017 0
    outer loop
      vertex 6.69131 -7.43145 25
      vertex 5 -8.66025 -25
      vertex 6.69131 -7.43145 -25
    endloop
  endfacet
  facet normal 0.207911 0.978148 -0
    outer loop
      vertex 3.09017 9.51056 -25
      vertex 1.04528 9.94522 25
      vertex 3.09017 9.51056 25
    endloop
  endfacet
  facet normal 0.207911 0.978148 0
    outer loop
      vertex 1.04528 9.94522 25
      vertex 3.09017 9.51056 -25
      vertex 1.04528 9.94522 -25
    endloop
  endfacet
  facet normal -0.951057 0.309017 0
    outer loop
      vertex -9.78148 2.07912 -25
      vertex -9.13545 4.06737 25
      vertex -9.13545 4.06737 -25
    endloop
  endfacet
  facet normal -0.951057 0.309017 0
    outer loop
      vertex -9.13545 4.06737 25
      vertex -9.78148 2.07912 -25
      vertex -9.78148 2.07912 25
    endloop
  endfacet
  facet normal 0.866026 -0.5 0
    outer loop
      vertex 8.09017 -5.87785 25
      vertex 9.13545 -4.06737 -25
      vertex 9.13545 -4.06737 25
    endloop
  endfacet
  facet normal 0.866026 -0.5 0
    outer loop
      vertex 9.13545 -4.06737 -25
      vertex 8.09017 -5.87785 25
      vertex 8.09017 -5.87785 -25
    endloop
  endfacet
  facet normal -0.994522 -0.104529 0
    outer loop
      vertex -9.94745 -0.5 -25
      vertex -9.78148 -2.07912 -25
      vertex -9.94745 -0.5 -15
    endloop
  endfacet
  facet normal -0.994522 -0.104529 0
    outer loop
      vertex -9.94745 -0.5 -15
      vertex -10 0 25
      vertex -10 0 -15
    endloop
  endfacet
  facet normal -0.994522 -0.104529 -0
    outer loop
      vertex -9.78148 -2.07912 25
      vertex -9.94745 -0.5 -15
      vertex -9.78148 -2.07912 -25
    endloop
  endfacet
  facet normal -0.994522 -0.104529 3.05142e-09
    outer loop
      vertex -9.94745 -0.5 -15
      vertex -9.78148 -2.07912 25
      vertex -10 0 25
    endloop
  endfacet
  facet normal 0.207911 -0.978148 0
    outer loop
      vertex 1.04528 -9.94522 -25
      vertex 3.09017 -9.51056 25
      vertex 1.04528 -9.94522 25
    endloop
  endfacet
  facet normal 0.207911 -0.978148 0
    outer loop
      vertex 3.09017 -9.51056 25
      vertex 1.04528 -9.94522 -25
      vertex 3.09017 -9.51056 -25
    endloop
  endfacet
  facet normal 0.406737 -0.913545 0
    outer loop
      vertex 3.09017 -9.51056 -25
      vertex 5 -8.66025 25
      vertex 3.09017 -9.51056 25
    endloop
  endfacet
  facet normal 0.406737 -0.913545 0
    outer loop
      vertex 5 -8.66025 25
      vertex 3.09017 -9.51056 -25
      vertex 5 -8.66025 -25
    endloop
  endfacet
  facet normal -0.207911 -0.978148 0
    outer loop
      vertex -3.09017 -9.51056 -25
      vertex -1.04528 -9.94522 25
      vertex -3.09017 -9.51056 25
    endloop
  endfacet
  facet normal -0.207911 -0.978148 -0
    outer loop
      vertex -1.04528 -9.94522 25
      vertex -3.09017 -9.51056 -25
      vertex -1.04528 -9.94522 -25
    endloop
  endfacet
  facet normal 0 -1 0
    outer loop
      vertex -1.04528 -9.94522 25
      vertex -0.5 -9.94522 -15
      vertex 1.04528 -9.94522 25
    endloop
  endfacet
  facet normal 0 -1 0
    outer loop
      vertex -1.04528 -9.94522 -25
      vertex -0.5 -9.94522 -15
      vertex -1.04528 -9.94522 25
    endloop
  endfacet
  facet normal 0 -1 -0
    outer loop
      vertex -0.5 -9.94522 -15
      vertex -1.04528 -9.94522 -25
      vertex -0.5 -9.94522 -25
    endloop
  endfacet
  facet normal 0 -1 0
    outer loop
      vertex 0.5 -9.94522 -15
      vertex 1.04528 -9.94522 25
      vertex -0.5 -9.94522 -15
    endloop
  endfacet
  facet normal 0 -1 0
    outer loop
      vertex 1.04528 -9.94522 -25
      vertex 0.5 -9.94522 -15
      vertex 0.5 -9.94522 -25
    endloop
  endfacet
  facet normal 0 -1 0
    outer loop
      vertex 0.5 -9.94522 -15
      vertex 1.04528 -9.94522 -25
      vertex 1.04528 -9.94522 25
    endloop
  endfacet
  facet normal -0.951057 -0.309017 0
    outer loop
      vertex -9.13545 -4.06737 -25
      vertex -9.78148 -2.07912 25
      vertex -9.78148 -2.07912 -25
    endloop
  endfacet
  facet normal -0.951057 -0.309017 0
    outer loop
      vertex -9.78148 -2.07912 25
      vertex -9.13545 -4.06737 -25
      vertex -9.13545 -4.06737 25
    endloop
  endfacet
  facet normal -0.743145 -0.669131 0
    outer loop
      vertex -6.69131 -7.43145 -25
      vertex -8.09017 -5.87785 25
      vertex -8.09017 -5.87785 -25
    endloop
  endfacet
  facet normal -0.743145 -0.669131 0
    outer loop
      vertex -8.09017 -5.87785 25
      vertex -6.69131 -7.43145 -25
      vertex -6.69131 -7.43145 25
    endloop
  endfacet
  facet normal 0.743145 -0.669131 0
    outer loop
      vertex 6.69131 -7.43145 25
      vertex 8.09017 -5.87785 -25
      vertex 8.09017 -5.87785 25
    endloop
  endfacet
  facet normal 0.743145 -0.669131 0
    outer loop
      vertex 8.09017 -5.87785 -25
      vertex 6.69131 -7.43145 25
      vertex 6.69131 -7.43145 -25
    endloop
  endfacet
  facet normal -0.587785 -0.809017 0
    outer loop
      vertex -6.69131 -7.43145 -25
      vertex -5 -8.66025 25
      vertex -6.69131 -7.43145 25
    endloop
  endfacet
  facet normal -0.587785 -0.809017 -0
    outer loop
      vertex -5 -8.66025 25
      vertex -6.69131 -7.43145 -25
      vertex -5 -8.66025 -25
    endloop
  endfacet
  facet normal -0.406737 -0.913545 0
    outer loop
      vertex -5 -8.66025 -25
      vertex -3.09017 -9.51056 25
      vertex -5 -8.66025 25
    endloop
  endfacet
  facet normal -0.406737 -0.913545 -0
    outer loop
      vertex -3.09017 -9.51056 25
      vertex -5 -8.66025 -25
      vertex -3.09017 -9.51056 -25
    endloop
  endfacet
  facet normal 0.944002 0.0992191 0.314667
    outer loop
      vertex 9.78148 2.07912 25
      vertex 0 0 55
      vertex 10 0 25
    endloop
  endfacet
  facet normal -0.902745 -0.293319 0.314667
    outer loop
      vertex 0 0 55
      vertex -9.78148 -2.07912 25
      vertex -9.13545 -4.06737 25
    endloop
  endfacet
  facet normal -0.19735 0.92846 0.314667
    outer loop
      vertex -1.04528 9.94522 25
      vertex -3.09017 9.51056 25
      vertex 0 0 55
    endloop
  endfacet
  facet normal 0.19735 -0.92846 0.314667
    outer loop
      vertex 3.09017 -9.51056 25
      vertex 0 0 55
      vertex 1.04528 -9.94522 25
    endloop
  endfacet
  facet normal -0.822033 0.474601 0.314667
    outer loop
      vertex -8.09017 5.87785 25
      vertex -9.13545 4.06737 25
      vertex 0 0 55
    endloop
  endfacet
  facet normal 0.386075 0.867139 0.314667
    outer loop
      vertex 3.09017 9.51056 25
      vertex 0 0 55
      vertex 5 8.66025 25
    endloop
  endfacet
  facet normal -0.557927 -0.76792 0.314667
    outer loop
      vertex 0 0 55
      vertex -6.69131 -7.43145 25
      vertex -5 -8.66025 25
    endloop
  endfacet
  facet normal 0.822033 -0.474601 0.314667
    outer loop
      vertex 9.13545 -4.06737 25
      vertex 0 0 55
      vertex 8.09017 -5.87785 25
    endloop
  endfacet
  facet normal -0.557927 0.767921 0.314667
    outer loop
      vertex -5 8.66025 25
      vertex -6.69131 7.43145 25
      vertex 0 0 55
    endloop
  endfacet
  facet normal -0.902745 0.293319 0.314667
    outer loop
      vertex -9.13545 4.06737 25
      vertex -9.78148 2.07912 25
      vertex 0 0 55
    endloop
  endfacet
  facet normal 0.19735 0.92846 0.314667
    outer loop
      vertex 1.04528 9.94522 25
      vertex 0 0 55
      vertex 3.09017 9.51056 25
    endloop
  endfacet
  facet normal 0.705394 0.63514 0.314667
    outer loop
      vertex 6.69131 7.43145 25
      vertex 0 0 55
      vertex 8.09017 5.87785 25
    endloop
  endfacet
  facet normal -0.822033 -0.474601 0.314667
    outer loop
      vertex 0 0 55
      vertex -9.13545 -4.06737 25
      vertex -8.09017 -5.87785 25
    endloop
  endfacet
  facet normal -0.386075 0.867139 0.314667
    outer loop
      vertex -3.09017 9.51056 25
      vertex -5 8.66025 25
      vertex 0 0 55
    endloop
  endfacet
  facet normal -0.705394 0.63514 0.314667
    outer loop
      vertex -6.69131 7.43145 25
      vertex -8.09017 5.87785 25
      vertex 0 0 55
    endloop
  endfacet
  facet normal -0.944002 0.0992191 0.314667
    outer loop
      vertex -9.78148 2.07912 25
      vertex -10 0 25
      vertex 0 0 55
    endloop
  endfacet
  facet normal 0 0.949202 0.314667
    outer loop
      vertex 1.04528 9.94522 25
      vertex -1.04528 9.94522 25
      vertex 0 0 55
    endloop
  endfacet
  facet normal 0.557927 0.76792 0.314667
    outer loop
      vertex 5 8.66025 25
      vertex 0 0 55
      vertex 6.69131 7.43145 25
    endloop
  endfacet
  facet normal 0.822033 0.474601 0.314667
    outer loop
      vertex 8.09017 5.87785 25
      vertex 0 0 55
      vertex 9.13545 4.06737 25
    endloop
  endfacet
  facet normal 0.902745 0.293319 0.314667
    outer loop
      vertex 9.13545 4.06737 25
      vertex 0 0 55
      vertex 9.78148 2.07912 25
    endloop
  endfacet
  facet normal -0.944002 -0.0992191 0.314667
    outer loop
      vertex 0 0 55
      vertex -10 0 25
      vertex -9.78148 -2.07912 25
    endloop
  endfacet
  facet normal -0.705394 -0.63514 0.314667
    outer loop
      vertex 0 0 55
      vertex -8.09017 -5.87785 25
      vertex -6.69131 -7.43145 25
    endloop
  endfacet
  facet normal -0.19735 -0.92846 0.314667
    outer loop
      vertex 0 0 55
      vertex -3.09017 -9.51056 25
      vertex -1.04528 -9.94522 25
    endloop
  endfacet
  facet normal -0.386075 -0.867139 0.314667
    outer loop
      vertex 0 0 55
      vertex -5 -8.66025 25
      vertex -3.09017 -9.51056 25
    endloop
  endfacet
  facet normal 0 -0.949202 0.314667
    outer loop
      vertex 0 0 55
      vertex -1.04528 -9.94522 25
      vertex 1.04528 -9.94522 25
    endloop
  endfacet
  facet normal 0.557927 -0.76792 0.314667
    outer loop
      vertex 6.69131 -7.43145 25
      vertex 0 0 55
      vertex 5 -8.66025 25
    endloop
  endfacet
  facet normal 0.386075 -0.867139 0.314667
    outer loop
      vertex 5 -8.66025 25
      vertex 0 0 55
      vertex 3.09017 -9.51056 25
    endloop
  endfacet
  facet normal 0.705394 -0.63514 0.314667
    outer loop
      vertex 8.09017 -5.87785 25
      vertex 0 0 55
      vertex 6.69131 -7.43145 25
    endloop
  endfacet
  facet normal 0.944002 -0.0992191 0.314667
    outer loop
      vertex 10 0 25
      vertex 0 0 55
      vertex 9.78148 -2.07912 25
    endloop
  endfacet
  facet normal 0.902745 -0.293319 0.314667
    outer loop
      vertex 9.78148 -2.07912 25
      vertex 0 0 55
      vertex 9.13545 -4.06737 25
    endloop
  endfacet
endsolid OpenSCAD_Model
